<?xml version="1.0" encoding="utf-8"?>
<!-- Generator: Adobe Illustrator 26.0.3, SVG Export Plug-In . SVG Version: 6.00 Build 0)  -->
<svg version="1.1" id="Layer_1" xmlns="http://www.w3.org/2000/svg" xmlns:xlink="http://www.w3.org/1999/xlink" x="0px" y="0px"
	 viewBox="0 0 236 40" style="enable-background:new 0 0 236 40;" xml:space="preserve">
<style type="text/css">
	.st0{fill:#222222;}
	.st1{fill:#E9B949;}
</style>
<g>
	<path class="st0" d="M37,8.7h4.4v14.8c0,1.4-0.3,2.6-0.9,3.6c-0.6,1-1.4,1.8-2.5,2.4c-1.1,0.6-2.3,0.8-3.7,0.8
		c-2.3,0-4-0.6-5.3-1.7c-1.3-1.2-1.9-2.8-1.9-4.9h4.4c0,1,0.2,1.8,0.7,2.3c0.4,0.5,1.1,0.7,2.1,0.7c0.8,0,1.5-0.3,2-0.9
		c0.5-0.6,0.7-1.4,0.7-2.5V8.7z M53.2,21.9c0-1.6,0.3-3,0.9-4.2c0.6-1.2,1.5-2.2,2.6-2.9c1.1-0.7,2.5-1,4-1c2.1,0,3.9,0.7,5.2,2
		c1.4,1.3,2.1,3.1,2.3,5.3l0,1.1c0,2.4-0.7,4.4-2,5.9c-1.4,1.5-3.2,2.2-5.5,2.2c-2.3,0-4.1-0.7-5.5-2.2c-1.4-1.5-2-3.5-2-6V21.9z
		 M57.4,22.2c0,1.5,0.3,2.7,0.8,3.5c0.6,0.8,1.4,1.2,2.4,1.2c1,0,1.8-0.4,2.4-1.2c0.6-0.8,0.9-2.1,0.9-3.8c0-1.5-0.3-2.6-0.9-3.4
		c-0.6-0.8-1.4-1.2-2.4-1.2c-1,0-1.8,0.4-2.4,1.2C57.7,19.3,57.4,20.5,57.4,22.2z M84,15.9c1.1-1.3,2.5-2,4.2-2c3.4,0,5.2,2,5.2,6
		V30h-4.2V20c0-0.9-0.2-1.6-0.6-2c-0.4-0.4-1-0.7-1.9-0.7c-1.2,0-2.1,0.5-2.7,1.4V30h-4.2V7.5H84V15.9z M109.5,14.2l0.1,1.8
		c1.1-1.4,2.7-2.1,4.6-2.1c1.7,0,2.9,0.5,3.8,1.5s1.2,2.5,1.3,4.4V30H115V19.9c0-0.9-0.2-1.5-0.6-1.9c-0.4-0.4-1-0.6-1.9-0.6
		c-1.2,0-2.1,0.5-2.7,1.5V30h-4.2V14.2H109.5z"/>
	<path class="st1" d="M131.7,30V8.7h6.6c1.9,0,3.6,0.4,5,1.3c1.5,0.8,2.6,2,3.5,3.6c0.8,1.6,1.2,3.3,1.2,5.3v1c0,2-0.4,3.7-1.2,5.3
		c-0.8,1.5-2,2.7-3.4,3.6c-1.5,0.8-3.2,1.3-5,1.3H131.7z M136.1,12.2v14.2h2.1c1.7,0,3-0.6,3.9-1.7c0.9-1.1,1.4-2.7,1.4-4.8v-1.1
		c0-2.2-0.4-3.8-1.3-4.9c-0.9-1.1-2.2-1.7-3.9-1.7H136.1z M159.3,21.9c0-1.6,0.3-3,0.9-4.2c0.6-1.2,1.5-2.2,2.6-2.9
		c1.1-0.7,2.5-1,4-1c2.1,0,3.9,0.7,5.2,2c1.4,1.3,2.1,3.1,2.3,5.3l0,1.1c0,2.4-0.7,4.4-2,5.9c-1.4,1.5-3.2,2.2-5.5,2.2
		c-2.3,0-4.1-0.7-5.5-2.2c-1.4-1.5-2-3.5-2-6V21.9z M163.5,22.2c0,1.5,0.3,2.7,0.9,3.5c0.6,0.8,1.4,1.2,2.4,1.2c1,0,1.8-0.4,2.4-1.2
		c0.6-0.8,0.9-2.1,0.9-3.8c0-1.5-0.3-2.6-0.9-3.4c-0.6-0.8-1.4-1.2-2.4-1.2c-1,0-1.8,0.4-2.4,1.2C163.8,19.3,163.5,20.5,163.5,22.2z
		 M193.2,30.3c-2.3,0-4.2-0.7-5.7-2.1c-1.5-1.4-2.2-3.3-2.2-5.7V22c0-1.6,0.3-3,0.9-4.3c0.6-1.3,1.5-2.2,2.6-2.9
		c1.1-0.7,2.4-1,3.9-1c2.2,0,3.9,0.7,5.1,2.1c1.2,1.4,1.9,3.3,1.9,5.8v1.7h-10.1c0.1,1,0.5,1.9,1.2,2.5c0.7,0.6,1.6,0.9,2.6,0.9
		c1.6,0,2.9-0.6,3.8-1.8l2.1,2.3c-0.6,0.9-1.5,1.6-2.6,2.1C195.7,30,194.5,30.3,193.2,30.3z M192.7,17.3c-0.8,0-1.5,0.3-2.1,0.8
		c-0.5,0.6-0.9,1.4-1,2.4h5.9v-0.3c0-0.9-0.3-1.7-0.8-2.2C194.3,17.5,193.6,17.3,192.7,17.3z"/>
</g>
</svg>
