<?xml version="1.0" encoding="utf-8"?>
<!-- Generator: Adobe Illustrator 26.0.3, SVG Export Plug-In . SVG Version: 6.00 Build 0)  -->
<svg version="1.1" id="Layer_1" xmlns="http://www.w3.org/2000/svg" xmlns:xlink="http://www.w3.org/1999/xlink" x="0px" y="0px"
	 viewBox="0 0 236 40" style="enable-background:new 0 0 236 40;" xml:space="preserve">
<style type="text/css">
	.st0{fill:#061910;}
	.st1{fill:#5A2499;}
</style>
<path class="st0" d="M29.2,23.6l6-14.9H39v20.9h-2.3V11.5h-0.2c-2,5-4.1,10.1-6.2,15.1h-2.5l-6.1-15.1h-0.2v18.1h-2.3V8.7H23l6,14.9
	H29.2z"/>
<path class="st0" d="M46,7c1,0,1.7,0.7,1.7,1.7c0,1-0.7,1.7-1.7,1.7c-0.9-0.1-1.6-0.8-1.6-1.8C44.5,7.7,45.2,7,46,7z M45,13.4h2.3
	v16.2H45L45,13.4z"/>
<path class="st0" d="M58.9,13.1c2.6,0,4,1,4.6,1.7l-1.5,1.7c-0.7-0.7-1.6-1.3-3.2-1.3c-2.6,0-4.4,1.7-4.4,6.3c0,4.6,1.7,6.4,4.4,6.4
	c1.5,0,2.5-0.5,3.2-1.3l1.4,1.6c-0.7,0.7-2,1.7-4.8,1.7c-4,0-6.5-2.3-6.5-8.1C52,15.8,54.9,13.1,58.9,13.1z"/>
<path class="st0" d="M79.1,18.4v11.2h-2.3V18.8c0-2-1.1-3.6-3.3-3.6c-1.9,0-3.6,1.1-4.3,2.9v11.5h-2.3V7h2.3v8.2h0.1
	c0.5-0.6,1.9-2.1,4.7-2.1C77.1,13.1,79.1,15.1,79.1,18.4z"/>
<path class="st0" d="M95.3,28.3c-1.1,0.8-2.8,1.5-5.1,1.5c-4.6,0-7.1-2.4-7.1-8.4c0-5.9,3.3-8.3,6.9-8.3c3.8,0,5.9,2.5,5.9,6.3
	c0,0.9-0.1,1.9-0.2,2.8H85.4c0.2,4,1.9,5.5,5.1,5.5c1.6,0,3.1-0.6,3.8-1.2L95.3,28.3z M85.5,20.4h8.1c0-0.4,0-0.7,0-0.9
	c0-2.8-1.2-4.3-3.8-4.3C87.7,15.1,85.7,16.5,85.5,20.4z"/>
<path class="st0" d="M102.6,7v18.8c0,1.4,0.5,2.1,1.7,2.1c0.5,0,0.9-0.1,1.3-0.3v2c-0.6,0.3-1.4,0.4-2,0.4c-2.2,0-3.3-1.3-3.3-3.4V7
	H102.6z"/>
<path class="st0" d="M111.2,7v18.8c0,1.4,0.5,2.1,1.7,2.1c0.5,0,0.9-0.1,1.3-0.3v2c-0.6,0.3-1.4,0.4-2,0.4c-2.2,0-3.3-1.3-3.3-3.4V7
	H111.2z"/>
<path class="st0" d="M128.6,28.3c-1.1,0.8-2.8,1.5-5.1,1.5c-4.6,0-7.1-2.4-7.1-8.4c0-5.9,3.3-8.3,6.9-8.3c3.8,0,5.9,2.5,5.9,6.3
	c0,0.9-0.1,1.9-0.2,2.8h-10.3c0.2,4,1.9,5.5,5.1,5.5c1.6,0,3.1-0.6,3.8-1.2L128.6,28.3z M118.8,20.4h8.1c0-0.4,0-0.7,0-0.9
	c0-2.8-1.2-4.3-3.8-4.3C121,15.1,119,16.5,118.8,20.4z"/>
<path class="st1" d="M154.7,31.8l-4.3,2.5l-5.5-4.6c-5,0-8.8-2.4-8.8-10.5c0-7.6,3.7-10.8,8.8-10.8c5.3,0,8.7,2.9,8.7,10.7
	c0,5.4-1.8,8.4-4,9.4v0.1L154.7,31.8z M145,26.1c2.5,0,4-1.7,4-6.9c0-5.2-1.6-7-4.2-7c-2.4,0-3.9,1.6-3.9,6.8
	C140.8,24.3,142.5,26.1,145,26.1L145,26.1z"/>
<path class="st1" d="M157.2,12.8h4.5v10.9c0,1.8,0.9,2.8,2.4,2.8c2,0,2.7-1.5,2.9-2V12.8h4.5v16.8h-3.8l-0.6-1.5H167
	c-1,1.2-2.3,1.9-4.4,1.9c-3.6,0-5.3-1.9-5.3-5.9L157.2,12.8z"/>
<path class="st1" d="M177.9,5.7c1.5,0,2.7,1.1,2.7,2.7c0,1.4-1.1,2.5-2.7,2.5c-1.4,0-2.5-1.1-2.6-2.5c0,0,0,0,0,0
	C175.3,6.8,176.5,5.7,177.9,5.7z M175.7,12.8h4.5v16.8h-4.5V12.8z"/>
<path class="st1" d="M198.6,29.6h-4.5V18.9c0-1.7-0.8-2.7-2.3-2.7c-1.3,0-2.4,0.8-2.9,2v11.4h-4.5V12.8h3.5l0.9,1.6h0.1
	c1-1.2,2.8-2,4.5-2c3.3,0,5.2,1.8,5.2,5.6V29.6z"/>
<path class="st1" d="M216.8,29.6h-4.5V18.9c0-1.7-0.8-2.7-2.3-2.7c-1.3,0-2.4,0.8-2.9,2v11.4h-4.5V12.8h3.5l0.9,1.6h0.1
	c1-1.2,2.8-2,4.5-2c3.3,0,5.2,1.8,5.2,5.6V29.6z"/>
</svg>
